<mxfile host="app.diagrams.net" modified="2024-01-25T05:21:02.989Z" agent="Mozilla/5.0 (Macintosh; Intel Mac OS X 10_15_7) AppleWebKit/537.36 (KHTML, like Gecko) Chrome/120.0.0.0 Safari/537.36" etag="0BQppaBL86NY80cWx_Y9" version="22.1.16" type="github">
  <diagram name="第 1 页" id="y9tHD-7tbXCZXs0uCjCv">
    <mxGraphModel dx="1196" dy="855" grid="1" gridSize="10" guides="1" tooltips="1" connect="1" arrows="1" fold="1" page="1" pageScale="1" pageWidth="827" pageHeight="1169" math="0" shadow="0">
      <root>
        <mxCell id="0" />
        <mxCell id="1" parent="0" />
        <mxCell id="ubtVSqhDZvk7H4RXQBdt-1" value="&lt;div style=&quot;text-align: justify;&quot;&gt;&lt;span style=&quot;font-size: 19px; background-color: initial;&quot;&gt;大&lt;/span&gt;&lt;/div&gt;&lt;font style=&quot;&quot; face=&quot;Helvetica&quot;&gt;&lt;div style=&quot;text-align: justify;&quot;&gt;&lt;span style=&quot;font-size: 19px;&quot;&gt;&lt;br&gt;&lt;/span&gt;&lt;/div&gt;&lt;div style=&quot;text-align: justify; font-size: 19px;&quot;&gt;&lt;span style=&quot;background-color: initial;&quot;&gt;模&lt;/span&gt;&lt;/div&gt;&lt;div style=&quot;text-align: justify;&quot;&gt;&lt;span style=&quot;font-size: 19px;&quot;&gt;&lt;br&gt;&lt;/span&gt;&lt;/div&gt;&lt;span style=&quot;font-size: 19px;&quot;&gt;&lt;div style=&quot;text-align: justify;&quot;&gt;&lt;span style=&quot;background-color: initial;&quot;&gt;型&lt;/span&gt;&lt;/div&gt;&lt;/span&gt;&lt;div style=&quot;text-align: justify;&quot;&gt;&lt;br&gt;&lt;/div&gt;&lt;span style=&quot;font-size: 19px;&quot;&gt;&lt;div style=&quot;text-align: justify;&quot;&gt;&lt;span style=&quot;background-color: initial;&quot;&gt;开&lt;/span&gt;&lt;/div&gt;&lt;/span&gt;&lt;div style=&quot;text-align: justify;&quot;&gt;&lt;br&gt;&lt;/div&gt;&lt;span style=&quot;font-size: 19px;&quot;&gt;&lt;div style=&quot;text-align: justify;&quot;&gt;&lt;span style=&quot;background-color: initial;&quot;&gt;发&lt;/span&gt;&lt;/div&gt;&lt;/span&gt;&lt;div style=&quot;text-align: justify;&quot;&gt;&lt;br&gt;&lt;/div&gt;&lt;span style=&quot;font-size: 19px;&quot;&gt;&lt;div style=&quot;text-align: justify;&quot;&gt;&lt;span style=&quot;background-color: initial;&quot;&gt;环&lt;/span&gt;&lt;/div&gt;&lt;/span&gt;&lt;div style=&quot;text-align: justify;&quot;&gt;&lt;br&gt;&lt;/div&gt;&lt;span style=&quot;font-size: 19px;&quot;&gt;&lt;div style=&quot;text-align: justify;&quot;&gt;&lt;span style=&quot;background-color: initial;&quot;&gt;境&lt;/span&gt;&lt;/div&gt;&lt;/span&gt;&lt;div style=&quot;text-align: justify;&quot;&gt;&lt;br&gt;&lt;/div&gt;&lt;/font&gt;" style="rounded=1;whiteSpace=wrap;html=1;align=center;fillColor=#fff2cc;strokeColor=#d6b656;" vertex="1" parent="1">
          <mxGeometry x="30" y="170" width="40" height="440" as="geometry" />
        </mxCell>
        <mxCell id="ubtVSqhDZvk7H4RXQBdt-2" value="" style="shape=flexArrow;endArrow=classic;html=1;rounded=0;fillColor=#f5f5f5;strokeColor=#666666;" edge="1" parent="1">
          <mxGeometry width="50" height="50" relative="1" as="geometry">
            <mxPoint x="110" y="185" as="sourcePoint" />
            <mxPoint x="110" y="595" as="targetPoint" />
          </mxGeometry>
        </mxCell>
        <mxCell id="ubtVSqhDZvk7H4RXQBdt-4" value="&lt;font style=&quot;font-size: 25px;&quot;&gt;Service&lt;/font&gt;" style="rounded=1;whiteSpace=wrap;html=1;fillColor=#dae8fc;strokeColor=#6c8ebf;" vertex="1" parent="1">
          <mxGeometry x="160" y="170" width="120" height="130" as="geometry" />
        </mxCell>
        <mxCell id="ubtVSqhDZvk7H4RXQBdt-5" value="&lt;font style=&quot;font-size: 25px;&quot;&gt;Model&lt;/font&gt;" style="rounded=1;whiteSpace=wrap;html=1;fillColor=#d5e8d4;strokeColor=#82b366;" vertex="1" parent="1">
          <mxGeometry x="160" y="330" width="120" height="130" as="geometry" />
        </mxCell>
        <mxCell id="ubtVSqhDZvk7H4RXQBdt-6" value="&lt;font style=&quot;font-size: 25px;&quot;&gt;Data&lt;/font&gt;" style="rounded=1;whiteSpace=wrap;html=1;fillColor=#f8cecc;strokeColor=#b85450;" vertex="1" parent="1">
          <mxGeometry x="162" y="490" width="119" height="130" as="geometry" />
        </mxCell>
        <mxCell id="ubtVSqhDZvk7H4RXQBdt-7" value="" style="shape=flexArrow;endArrow=classic;html=1;rounded=0;fillColor=#f5f5f5;strokeColor=#666666;" edge="1" parent="1">
          <mxGeometry width="50" height="50" relative="1" as="geometry">
            <mxPoint x="330" y="595" as="sourcePoint" />
            <mxPoint x="330" y="185" as="targetPoint" />
          </mxGeometry>
        </mxCell>
        <mxCell id="ubtVSqhDZvk7H4RXQBdt-8" value="Request" style="rounded=1;whiteSpace=wrap;html=1;fillColor=#dae8fc;strokeColor=#6c8ebf;" vertex="1" parent="1">
          <mxGeometry x="380" y="160" width="100" height="50" as="geometry" />
        </mxCell>
        <mxCell id="ubtVSqhDZvk7H4RXQBdt-9" value="Response" style="rounded=1;whiteSpace=wrap;html=1;fillColor=#dae8fc;strokeColor=#6c8ebf;" vertex="1" parent="1">
          <mxGeometry x="380" y="240" width="100" height="50" as="geometry" />
        </mxCell>
        <mxCell id="ubtVSqhDZvk7H4RXQBdt-10" value="接口统一，可拓展" style="rounded=1;whiteSpace=wrap;html=1;fillColor=#dae8fc;strokeColor=#6c8ebf;" vertex="1" parent="1">
          <mxGeometry x="490" y="160" width="100" height="50" as="geometry" />
        </mxCell>
        <mxCell id="ubtVSqhDZvk7H4RXQBdt-11" value="LUCA" style="rounded=1;whiteSpace=wrap;html=1;fillColor=#dae8fc;strokeColor=#6c8ebf;" vertex="1" parent="1">
          <mxGeometry x="490" y="220" width="40" height="30" as="geometry" />
        </mxCell>
        <mxCell id="ubtVSqhDZvk7H4RXQBdt-12" value="API" style="rounded=1;whiteSpace=wrap;html=1;fillColor=#dae8fc;strokeColor=#6c8ebf;" vertex="1" parent="1">
          <mxGeometry x="550" y="220" width="40" height="30" as="geometry" />
        </mxCell>
        <mxCell id="ubtVSqhDZvk7H4RXQBdt-13" value="Agent" style="rounded=1;whiteSpace=wrap;html=1;fillColor=#dae8fc;strokeColor=#6c8ebf;" vertex="1" parent="1">
          <mxGeometry x="490" y="260" width="40" height="30" as="geometry" />
        </mxCell>
        <mxCell id="ubtVSqhDZvk7H4RXQBdt-14" value="Role-LLM" style="rounded=1;whiteSpace=wrap;html=1;fillColor=#dae8fc;strokeColor=#6c8ebf;" vertex="1" parent="1">
          <mxGeometry x="550" y="260" width="40" height="30" as="geometry" />
        </mxCell>
        <mxCell id="ubtVSqhDZvk7H4RXQBdt-15" value="Alignment" style="rounded=1;whiteSpace=wrap;html=1;fillColor=#d5e8d4;strokeColor=#82b366;" vertex="1" parent="1">
          <mxGeometry x="380" y="330" width="210" height="30" as="geometry" />
        </mxCell>
        <mxCell id="ubtVSqhDZvk7H4RXQBdt-16" value="PostTrain" style="rounded=1;whiteSpace=wrap;html=1;fillColor=#d5e8d4;strokeColor=#82b366;" vertex="1" parent="1">
          <mxGeometry x="380" y="370" width="210" height="30" as="geometry" />
        </mxCell>
        <mxCell id="ubtVSqhDZvk7H4RXQBdt-17" value="PreTrain" style="rounded=1;whiteSpace=wrap;html=1;fillColor=#d5e8d4;strokeColor=#82b366;" vertex="1" parent="1">
          <mxGeometry x="380" y="410" width="210" height="30" as="geometry" />
        </mxCell>
        <mxCell id="ubtVSqhDZvk7H4RXQBdt-19" value="数据采集" style="rounded=1;whiteSpace=wrap;html=1;fillColor=#f8cecc;strokeColor=#b85450;" vertex="1" parent="1">
          <mxGeometry x="380" y="585" width="210" height="20" as="geometry" />
        </mxCell>
        <mxCell id="ubtVSqhDZvk7H4RXQBdt-21" value="数据清理" style="rounded=1;whiteSpace=wrap;html=1;fillColor=#f8cecc;strokeColor=#b85450;" vertex="1" parent="1">
          <mxGeometry x="380" y="552" width="210" height="20" as="geometry" />
        </mxCell>
        <mxCell id="ubtVSqhDZvk7H4RXQBdt-22" value="数据交付" style="rounded=1;whiteSpace=wrap;html=1;fillColor=#f8cecc;strokeColor=#b85450;" vertex="1" parent="1">
          <mxGeometry x="380" y="520" width="210" height="20" as="geometry" />
        </mxCell>
        <mxCell id="ubtVSqhDZvk7H4RXQBdt-23" value="数据应用" style="rounded=1;whiteSpace=wrap;html=1;fillColor=#f8cecc;strokeColor=#b85450;" vertex="1" parent="1">
          <mxGeometry x="380" y="490" width="210" height="20" as="geometry" />
        </mxCell>
      </root>
    </mxGraphModel>
  </diagram>
</mxfile>
